<?xml version="1.0" standalone="no"?>
<!DOCTYPE svg PUBLIC "-//W3C//DTD SVG 20010904//EN"
 "http://www.w3.org/TR/2001/REC-SVG-20010904/DTD/svg10.dtd">
<svg version="1.0" xmlns="http://www.w3.org/2000/svg"
 width="31.88" height="32" viewBox="0 0 24.000000 24.000000"
 preserveAspectRatio="xMidYMid meet">

<g transform="translate(0.000000,24.000000) scale(0.100000,-0.100000)"
fill="#000000" stroke="none">
<path d="M20 210 c0 -6 33 -10 80 -10 47 0 80 4 80 10 0 6 -33 10 -80 10 -47
0 -80 -4 -80 -10z"/>
<path d="M20 170 c0 -5 20 -10 45 -10 25 0 45 5 45 10 0 6 -20 10 -45 10 -25
0 -45 -4 -45 -10z"/>
<path d="M130 131 c0 -45 -1 -48 -24 -44 -37 7 -39 -13 -5 -52 30 -34 35 -36
83 -33 l51 3 3 59 c3 48 1 58 -12 53 -8 -3 -17 -1 -20 6 -3 9 -8 8 -15 -3 -9
-13 -11 -13 -11 3 0 20 -16 23 -23 5 -3 -7 -6 2 -6 20 -1 52 -21 37 -21 -17z
m78 -41 c7 0 12 -14 12 -35 0 -35 -1 -35 -42 -35 -35 1 -47 6 -63 28 l-20 27
28 -18 27 -17 0 31 c0 28 3 31 23 25 12 -3 28 -6 35 -6z"/>
<path d="M20 130 c0 -5 20 -10 45 -10 25 0 45 5 45 10 0 6 -20 10 -45 10 -25
0 -45 -4 -45 -10z"/>
</g>
</svg>
